<svg id="Capa_1" enable-background="new 0 0 512 512" height="512" viewBox="0 0 512 512" width="512" xmlns="http://www.w3.org/2000/svg"><g><path d="m241 297c0 8.284 6.756 15 15.04 15s15-6.716 15-15-6.716-15-15-15h-.08c-8.284 0-14.96 6.716-14.96 15z"/><path d="m256.04 402h-.08c-8.284 0-14.96 6.716-14.96 15s6.756 15 15.04 15 15-6.716 15-15-6.716-15-15-15z"/><path d="m439.27 237.186c0-8.284-6.716-15-15-15h-120.737c6.23-13.406 6.446-29.263.37-43.38l-12.622-29.343h44.923v30.554c0 8.284 6.716 15 15 15s15-6.716 15-15v-45.554c-.026-.534-.029-1.075-.085-1.601l-12.823-119.463c-.818-7.621-7.25-13.399-14.914-13.399h-164.764c-7.665 0-14.096 5.778-14.915 13.399l-12.822 119.461c-.454 4.233.912 8.459 3.756 11.626 2.845 3.166 6.901 4.975 11.158 4.975h59.937l-12.635 29.34c-6.077 14.12-5.861 29.977.369 43.383h-120.736c-8.284 0-15 6.716-15 15 0 6.528 4.178 12.067 10 14.128v225.688c0 8.284 6.716 15 15 15h28.27v5c0 8.284 6.716 15 15 15s15-6.716 15-15v-5h200v5c0 8.284 6.716 15 15 15s15-6.716 15-15v-5h28.27c8.284 0 15-6.716 15-15v-225.686c5.821-2.062 10-7.6 10-14.128zm-40 104.907h-286.54v-89.907h286.54zm-212.176-312.093h137.812l9.602 89.462h-157.016zm58.746 189.88c-3.819-1.84-7.014-4.789-9.237-8.527-3.58-6.02-3.935-13.754-.951-20.689l17.744-41.203h5.227l17.723 41.201c2.985 6.936 2.63 14.671-.95 20.691-4.006 6.865-11.539 10.877-19.397 10.832-3.566.001-6.984-.775-10.159-2.305zm-133.11 242.12v-89.907h286.54v89.907z"/></g></svg>