<?xml version="1.0" encoding="iso-8859-1"?>
<!-- Generator: Adobe Illustrator 19.0.0, SVG Export Plug-In . SVG Version: 6.00 Build 0)  -->
<svg version="1.1" id="Capa_1" xmlns="http://www.w3.org/2000/svg" xmlns:xlink="http://www.w3.org/1999/xlink" x="0px" y="0px"
	 viewBox="0 0 512 512" style="enable-background:new 0 0 512 512;" xml:space="preserve">
<g>
	<g>
		<path d="M496.987,406.122h-51.955h-71.201c14.591-14.552,26.853-31.068,36.482-49.057c9.454,5.307,20.15,8.148,31.274,8.148
			c35.313,0,64.04-28.729,64.04-64.04s-28.729-64.04-64.04-64.04c-3.775,0-7.531,0.342-11.225,0.999v-28.53
			c0-13.37-10.876-24.246-24.246-24.246H101.184c-13.37,0-24.246,10.876-24.246,24.246v85.186c0,5.512,0.728,11.005,2.162,16.323
			l0.529,1.965c9.523,35.329,28.047,67.293,53.818,93.047H66.968H15.013C6.722,406.122,0,412.844,0,421.135
			c0,8.291,6.722,15.013,15.013,15.013h51.955v2.19c0,35.319,28.733,64.052,64.052,64.052H380.98
			c35.319,0,64.052-28.734,64.052-64.052v-2.19h51.955c8.291,0,15.013-6.722,15.013-15.013
			C512,412.844,505.278,406.122,496.987,406.122z M428.378,310.708c1.317-5.11,1.985-10.377,1.985-15.654v-25.987
			c3.588-1.25,7.384-1.91,11.225-1.91c18.756,0,34.014,15.259,34.014,34.014c0,18.755-15.259,34.014-34.014,34.014
			c-6.856,0-13.409-2.025-18.974-5.78C424.815,323.291,426.742,317.053,428.378,310.708z M108.619,305.261l-0.529-1.966
			c-0.748-2.773-1.127-5.635-1.127-8.508v-79.406h293.374v79.674c0,2.751-0.348,5.497-1.035,8.161
			c-8.72,33.829-27.01,64.112-52.896,87.574l-16.917,15.332H177.804l-16.681-15.094
			C135.699,368.024,117.544,338.366,108.619,305.261z M380.98,472.365h-249.96c-18.762,0-34.026-15.264-34.026-34.026v-2.19h69.242
			H341.07h73.935v2.19h0.001C415.006,457.1,399.742,472.365,380.98,472.365z"/>
	</g>
</g>
<g>
	<g>
		<path d="M196.836,71.951c-8.415-9.603-9.607-23.383-2.967-34.29l3.184-5.23c4.312-7.082,2.066-16.319-5.016-20.631
			c-7.082-4.312-16.319-2.066-20.631,5.016l-3.184,5.229c-13.497,22.167-11.073,50.174,6.031,69.693
			c7.492,8.551,9.312,20.772,4.633,31.133l-8.34,18.471c-3.412,7.557-0.052,16.449,7.504,19.861
			c2.005,0.906,4.104,1.334,6.169,1.334c5.72,0,11.185-3.287,13.692-8.839l8.34-18.471
			C215.762,114.17,212.067,89.331,196.836,71.951z"/>
	</g>
</g>
<g>
	<g>
		<path d="M264.889,71.951c-8.415-9.603-9.607-23.383-2.968-34.289l3.185-5.23c4.313-7.082,2.067-16.319-5.014-20.631
			c-7.08-4.312-16.318-2.067-20.631,5.014l-3.185,5.23c-13.497,22.167-11.073,50.174,6.031,69.693
			c7.491,8.551,9.31,20.771,4.632,31.133l-8.34,18.471c-3.412,7.557-0.052,16.449,7.505,19.861c2.005,0.906,4.104,1.334,6.169,1.334
			c5.72,0,11.185-3.287,13.692-8.839l8.34-18.471C283.815,114.17,280.118,89.331,264.889,71.951z"/>
	</g>
</g>
<g>
	<g>
		<path d="M332.443,71.951c-8.415-9.603-9.607-23.383-2.967-34.29l3.184-5.23c4.312-7.082,2.066-16.319-5.016-20.631
			c-7.082-4.312-16.319-2.066-20.631,5.016l-3.184,5.229c-13.497,22.167-11.073,50.174,6.031,69.693
			c7.492,8.551,9.311,20.771,4.633,31.133l-8.34,18.471c-3.412,7.557-0.052,16.449,7.504,19.861
			c2.005,0.906,4.104,1.334,6.169,1.334c5.72,0,11.185-3.287,13.692-8.839l8.34-18.471
			C351.368,114.17,347.672,89.331,332.443,71.951z"/>
	</g>
</g>
<g>
</g>
<g>
</g>
<g>
</g>
<g>
</g>
<g>
</g>
<g>
</g>
<g>
</g>
<g>
</g>
<g>
</g>
<g>
</g>
<g>
</g>
<g>
</g>
<g>
</g>
<g>
</g>
<g>
</g>
</svg>
