<svg id="Capa_1" enable-background="new 0 0 512 512" height="512" viewBox="0 0 512 512" width="512" xmlns="http://www.w3.org/2000/svg"><g><path d="m468.76 279.078c11.326-12.442 18.24-28.967 18.24-47.078 0-38.599-31.401-70-70-70s-70 31.401-70 70c0 26.746 15.083 50.026 37.185 61.808-13.692 13.595-22.185 32.419-22.185 53.192v15h-45c-24.813 0-45 20.187-45 45 0 5.259.915 10.305 2.58 15h-37.16c1.665-4.695 2.58-9.741 2.58-15 0-24.813-20.187-45-45-45h-45v-15c0-20.773-8.493-39.597-22.185-53.192 22.102-11.782 37.185-35.062 37.185-61.808 0-38.599-31.401-70-70-70s-70 31.401-70 70c0 18.111 6.914 34.636 18.24 47.078-25.519 11.981-43.24 37.915-43.24 67.922v150c0 8.284 6.716 15 15 15h482c8.284 0 15-6.716 15-15v-150c0-30.007-17.721-55.941-43.24-67.922zm-91.76-47.078c0-22.056 17.944-40 40-40s40 17.944 40 40-17.944 40-40 40-40-17.944-40-40zm-282-40c22.056 0 40 17.944 40 40s-17.944 40-40 40-40-17.944-40-40 17.944-40 40-40zm-20 170c-8.284 0-15 6.716-15 15v20c0 25.127 16.943 46.356 40 52.904v32.096h-70v-135c0-24.813 20.187-45 45-45s45 20.187 45 45v30c0 8.284 6.716 15 15 15h60c8.271 0 15 6.729 15 15s-6.729 15-15 15h-80c-13.785 0-25-11.215-25-25v-20c0-8.284-6.716-15-15-15zm307 120h-252v-30h252zm100 0h-70v-32.096c23.057-6.547 40-27.777 40-52.904v-20c0-8.284-6.716-15-15-15s-15 6.716-15 15v20c0 13.785-11.215 25-25 25h-80c-8.271 0-15-6.729-15-15s6.729-15 15-15h60c8.284 0 15-6.716 15-15v-30c0-24.813 20.187-45 45-45s45 20.187 45 45z"/><path d="m176 150h5v25c0 5.766 3.306 11.021 8.502 13.52 5.197 2.498 11.364 1.797 15.868-1.807l45.892-36.713h9.477l45.892 36.713c4.514 3.615 10.698 4.295 15.868 1.807 5.196-2.498 8.502-7.754 8.502-13.52v-25h5c19.299 0 35-15.701 35-35v-80c0-19.299-15.701-35-35-35h-160.001c-19.299 0-35 15.701-35 35v80c0 19.299 15.701 35 35 35zm-5-115c0-2.757 2.243-5 5-5h160c2.757 0 5 2.243 5 5v80c0 2.757-2.243 5-5 5h-20c-8.284 0-15 6.716-15 15v8.791l-25.63-20.504c-2.659-2.128-5.964-3.287-9.37-3.287h-20c-3.406 0-6.711 1.159-9.37 3.287l-25.63 20.504v-8.791c0-8.284-6.716-15-15-15h-20c-2.757 0-5-2.243-5-5z"/><path d="m216 90h80c8.284 0 15-6.716 15-15s-6.716-15-15-15h-80c-8.284 0-15 6.716-15 15s6.716 15 15 15z"/></g></svg>