<svg id="Capa_1" enable-background="new 0 0 512 512" height="512" viewBox="0 0 512 512" width="512" xmlns="http://www.w3.org/2000/svg"><g><path d="m470.998 291.245c-7.227 5.42-12.001 9-23.002 9s-15.775-3.581-23.002-9c-8.911-6.683-20.001-15-41.002-15-21 0-32.09 8.317-41.001 15-7.227 5.419-12 9-23.001 9-10.999 0-15.773-3.58-22.999-9-8.91-6.683-20-15-41-15s-32.088 8.317-40.999 15c-7.226 5.419-11.999 9-22.998 9-11 0-15.773-3.581-23-9-8.91-6.683-20-15-41-15s-32.089 8.317-41 15c-7.226 5.419-12 9-23 9-10.999 0-15.772-3.58-22.998-9-8.911-6.683-20-15-40.999-15v30c10.999 0 15.772 3.58 22.999 9 8.91 6.683 19.999 15 40.999 15s32.089-8.317 41-15c7.226-5.419 12-9 23-9s15.773 3.581 23 9c8.91 6.683 20 15 41 15s32.088-8.317 40.999-15c7.226-5.419 11.999-9 22.998-9 11 0 15.773 3.581 23 9 8.91 6.683 20 15 40.999 15 21 0 32.09-8.317 41.001-15 7.227-5.419 12-9 23.001-9s15.775 3.581 23.002 9c8.911 6.683 20.001 15 41.002 15s32.091-8.317 41.002-15c7.227-5.42 12.001-9 23.002-9v-30c-21.002.001-32.092 8.318-41.003 15z"/><path d="m447.996 369.702c-11.001 0-15.775-3.581-23.002-9-8.911-6.683-20.001-15-41.002-15-21 0-32.09 8.317-41.001 15-7.227 5.419-12 9-23.001 9-10.999 0-15.773-3.58-22.999-9-8.91-6.683-20-15-41-15s-32.088 8.317-40.999 15c-7.226 5.419-11.999 9-22.998 9-11 0-15.773-3.581-23-9-8.91-6.683-20-15-41-15s-32.089 8.317-41 15c-7.226 5.419-12 9-23 9-10.999 0-15.772-3.58-22.998-9-8.911-6.683-20-15-40.999-15v30c10.999 0 15.772 3.58 22.999 9 8.91 6.683 19.999 15 40.999 15s32.089-8.317 41-15c7.226-5.419 12-9 23-9s15.773 3.581 23 9c8.91 6.683 20 15 41 15s32.088-8.317 40.999-15c7.226-5.419 11.999-9 22.998-9 11 0 15.773 3.581 23 9 8.91 6.683 20 15 40.999 15 21 0 32.09-8.317 41.001-15 7.227-5.419 12-9 23.001-9s15.775 3.581 23.002 9c8.911 6.683 20.001 15 41.002 15s32.091-8.317 41.002-15c7.227-5.42 12.001-9 23.002-9v-30c-21.001 0-32.091 8.317-41.002 15-7.228 5.42-12.002 9-23.003 9z"/><path d="m447.996 439.158c-11.001 0-15.775-3.581-23.002-9-8.911-6.683-20.001-15-41.002-15-21 0-32.09 8.317-41.001 15-7.227 5.419-12 9-23.001 9-10.999 0-15.773-3.58-22.999-9-8.91-6.683-20-15-41-15s-32.088 8.317-40.999 15c-7.226 5.419-11.999 9-22.998 9-11 0-15.773-3.581-23-9-8.91-6.683-20-15-41-15s-32.089 8.317-41 15c-7.226 5.419-12 9-23 9-10.999 0-15.772-3.58-22.998-9-8.911-6.683-20-15-40.999-15v30c10.999 0 15.772 3.58 22.999 9 8.91 6.683 19.999 15 40.999 15s32.089-8.317 41-15c7.226-5.419 12-9 23-9s15.773 3.581 23 9c8.91 6.683 20 15 41 15s32.088-8.317 40.999-15c7.226-5.419 11.999-9 22.998-9 11 0 15.773 3.581 23 9 8.91 6.683 20 15 40.999 15 21 0 32.09-8.317 41.001-15 7.227-5.419 12-9 23.001-9s15.775 3.581 23.002 9c8.911 6.683 20.001 15 41.002 15s32.091-8.317 41.002-15c7.227-5.42 12.001-9 23.002-9v-30c-21.001 0-32.091 8.317-41.002 15-7.228 5.42-12.002 9-23.003 9z"/><path d="m346.5 169.342v2.5h30v-2.5c0-24.538 19.963-44.5 44.5-44.5v-30c-24.286 0-45.891 11.685-59.5 29.725-13.609-18.039-35.214-29.725-59.5-29.725v30c24.537 0 44.5 19.962 44.5 44.5z"/><path d="m219.057 108.899v2.146h30v-2.146c0-19.882 16.175-36.057 36.057-36.057v-30c-20.548 0-38.932 9.433-51.057 24.194-12.125-14.761-30.509-24.194-51.057-24.194v30c19.882 0 36.057 16.175 36.057 36.057z"/></g></svg>